<svg id="Layer_1" data-name="Layer 1" xmlns="http://www.w3.org/2000/svg" viewBox="0 0 60 55.49"><defs><style>.cls-1{fill:#fff;}</style></defs><path class="cls-1" d="M37.69,52.16v-4h3.55v7.33H0v-51H12.26V7.71H3.61V52.16Z"/><path class="cls-1" d="M18.14,2c-.22-1.52.21-2,1.7-2h1.52c1.57,0,1.94.39,1.77,2h1.11a2.17,2.17,0,0,1,2.24,2.17c0,1,0,1.9,0,2.85A2.13,2.13,0,0,1,24.31,9.2c-2.46,0-4.91,0-7.37,0A2.08,2.08,0,0,1,14.82,7c0-.92,0-1.85,0-2.78A2.12,2.12,0,0,1,17,2ZM20.6,7.33h1.81C23.63,7.33,24,7,24,5.76c0-.21,0-.42,0-.62a1.15,1.15,0,0,0-1.32-1.26h-3.2c-2,0-2.18.15-2.13,2.16,0,.9.41,1.28,1.33,1.29Z"/><path class="cls-1" d="M16.2,40.71c0,1,0,2,0,3S15.82,45,14.93,45H8.75c-.89,0-1.26-.37-1.26-1.26q0-3.09,0-6.18c0-.84.37-1.23,1.23-1.24,2.08,0,4.16,0,6.24,0,.87,0,1.23.4,1.23,1.31S16.2,39.69,16.2,40.71ZM14,42.89V38.52H9.69v4.37Z"/><path class="cls-1" d="M37.71,10.36V7.76H29.05V4.46H41.22v5.9Z"/><path class="cls-1" d="M25.65,19.28H19.91a1,1,0,0,1-1.08-1.4A1,1,0,0,1,20,17.11H31.12a2.51,2.51,0,0,1,.61.05,1.08,1.08,0,0,1,0,2.09,3.84,3.84,0,0,1-.68,0Z"/><path class="cls-1" d="M26.58,40.7H33c.82,0,1.29.38,1.3,1s-.48,1.07-1.32,1.07H20.1c-.85,0-1.34-.4-1.33-1.07s.49-1,1.35-1Z"/><path class="cls-1" d="M7.65,15.24c.2.1.55.26.88.45.55.3,1.1.6,1.62.94a.57.57,0,0,0,.83-.11c1.45-1.36,2.92-2.71,4.39-4a1.11,1.11,0,0,1,1.55-.15A1,1,0,0,1,17,13.86c-1.83,1.73-3.68,3.45-5.57,5.12a1.36,1.36,0,0,1-1.2.11,30,30,0,0,1-3.29-1.92A1.55,1.55,0,0,1,6.46,16C6.49,15.5,6.93,15.24,7.65,15.24Z"/><path class="cls-1" d="M10.59,28.65l4.69-4.32c.62-.57,1.27-.63,1.71-.17s.4,1.12-.27,1.74l-5,4.62a1.22,1.22,0,0,1-1.79.21C9,30.19,8,29.65,7.11,29.09c-.71-.41-.91-1-.59-1.54s1-.69,1.68-.28S9.76,28.17,10.59,28.65Z"/><path class="cls-1" d="M21.05,31c-.44,0-.88,0-1.31,0a1,1,0,0,1-1-1,1,1,0,0,1,1-1.09c.92,0,1.85,0,2.77,0A1,1,0,0,1,23.44,30a1,1,0,0,1-.93,1A14.22,14.22,0,0,1,21.05,31Z"/><rect class="cls-1" x="18.77" y="17.11" width="13.37" height="2.17" rx="1.08"/><path class="cls-1" d="M57.6,45.72a12.24,12.24,0,0,1-4.66-.95.86.86,0,0,0-.59,0,11.72,11.72,0,0,1-5.56,1c-4.07-.31-7.34-2-9.38-5.68a5.33,5.33,0,0,1-.4-.91.44.44,0,0,0-.47-.33,14.22,14.22,0,0,1-5.09-1.18.86.86,0,0,0-.59,0,14.41,14.41,0,0,1-6.2,1.23c-.47,0-.95-.09-1.42-.14a.83.83,0,0,1-.76-.66.89.89,0,0,1,.44-1,17.45,17.45,0,0,0,1.79-1.39A15,15,0,0,0,26,34a.65.65,0,0,0,0-.88,9.79,9.79,0,0,1-1.62-6.64,10.44,10.44,0,0,1,3.78-6.93,13.39,13.39,0,0,1,7.07-3.14,14,14,0,0,1,11,2.9,10.41,10.41,0,0,1,4,6.81,1.21,1.21,0,0,0,1,1.17,10,10,0,0,1,6.54,5.87A8.17,8.17,0,0,1,57,40.84a.64.64,0,0,0,0,.82A7.1,7.1,0,0,0,59.58,44a.78.78,0,0,1,.41.84.84.84,0,0,1-.73.74C58.71,45.65,58.15,45.68,57.6,45.72ZM26,37h.4a11.52,11.52,0,0,0,4.14-1.22,1.22,1.22,0,0,1,1.21,0,12.48,12.48,0,0,0,7.86,1.12,11.23,11.23,0,0,0,6.88-3.78,8.16,8.16,0,0,0,2-6.69A8.7,8.7,0,0,0,45,20.62a12.21,12.21,0,0,0-9.39-2.41,11.37,11.37,0,0,0-7.19,3.66,8.32,8.32,0,0,0-.46,10.86,1.12,1.12,0,0,1,.13,1.32,11.21,11.21,0,0,1-1.77,2.59C26.2,36.73,26.13,36.84,26,37Zm30.48,6.84c-.1-.17-.12-.22-.15-.26-.43-.64-.87-1.27-1.29-1.91a1,1,0,0,1,.12-1.31,6.41,6.41,0,0,0,1.2-5.86c-.83-2.94-3-4.63-5.73-5.62-.29-.1-.3.07-.34.27A10.07,10.07,0,0,1,49,32.51a12.79,12.79,0,0,1-8.27,5.89c-.62.16-1.24.24-1.87.36,0,.07,0,.11,0,.14a3,3,0,0,0,.18.36,9,9,0,0,0,4.66,4,10.36,10.36,0,0,0,8.17-.37,1.48,1.48,0,0,1,1.36,0,15,15,0,0,0,2,.74A10,10,0,0,0,56.45,43.86Z"/><path class="cls-1" d="M31.61,28.84a1.26,1.26,0,0,1-1.31-1.25,1.32,1.32,0,0,1,1.27-1.32,1.29,1.29,0,0,1,1.3,1.28A1.23,1.23,0,0,1,31.61,28.84Z"/><path class="cls-1" d="M38.62,27.56a1.23,1.23,0,0,1-1.27,1.28,1.28,1.28,0,0,1-1.3-1.27,1.35,1.35,0,0,1,1.29-1.3A1.28,1.28,0,0,1,38.62,27.56Z"/><path class="cls-1" d="M44.37,27.56a1.23,1.23,0,0,1-1.27,1.28,1.29,1.29,0,0,1-1.31-1.27,1.37,1.37,0,0,1,1.3-1.3A1.28,1.28,0,0,1,44.37,27.56Z"/></svg>